<?xml version="1.0" encoding="UTF-8"?>
<svg version="1.1" xmlns="http://www.w3.org/2000/svg" width="495" height="504">
<path d="M0 0 C0.75009527 -0.0069029 1.50019054 -0.01380581 2.27301598 -0.02091789 C6.25126682 -0.0566079 10.22937904 -0.08021319 14.20776367 -0.09399414 C17.45381494 -0.10717369 20.69847961 -0.14176914 23.9440918 -0.1965332 C42.0403172 -0.49564644 58.65924176 -0.75801574 75.29296875 7.44140625 C76.93652344 8.20493408 76.93652344 8.20493408 78.61328125 8.98388672 C86.22112771 12.67567938 92.75504235 18.14798735 99.29296875 23.44140625 C100.02386719 24.00472656 100.75476563 24.56804688 101.5078125 25.1484375 C107.69511566 30.14636132 112.30433482 36.52454175 117.06054688 42.84082031 C118.20258375 44.32402035 119.40956604 45.75659299 120.62109375 47.18359375 C122.29296875 49.44140625 122.29296875 49.44140625 122.29296875 52.44140625 C122.95296875 52.44140625 123.61296875 52.44140625 124.29296875 52.44140625 C128.665142 59.95868505 132.93785663 67.52456899 137.04296875 75.19140625 C137.40704834 75.86292725 137.77112793 76.53444824 138.14624023 77.22631836 C140.93954951 82.48555111 143.15735924 87.88696178 145.29296875 93.44140625 C145.63763184 94.31796875 145.98229492 95.19453125 146.33740234 96.09765625 C176.51488311 173.07849344 177.32806521 259.40104703 149.90283203 337.59594727 C149.30364927 339.40908678 148.85884736 341.27091783 148.41796875 343.12890625 C147.20737541 348.22560592 145.30554648 353.08033272 143.515625 357.99609375 C142.52101373 360.79880026 141.61757494 363.58591281 140.79296875 366.44140625 C138.0932885 375.66278599 134.93725541 384.59357808 130.4609375 393.10546875 C129.31804778 395.39124819 128.42310739 397.66892452 127.54296875 400.06640625 C124.89040637 406.92610651 121.07099131 413.19867826 117.38891602 419.54443359 C116.66596755 420.79578347 115.95012863 422.05127144 115.24194336 423.31103516 C113.27019988 426.81835861 111.189131 430.16457797 108.85546875 433.44140625 C108.25089844 434.29089844 107.64632813 435.14039063 107.0234375 436.015625 C106.45238281 436.81613281 105.88132812 437.61664063 105.29296875 438.44140625 C104.83535156 439.10785156 104.37773437 439.77429688 103.90625 440.4609375 C101.3303305 444.19073892 98.52983493 447.28160831 95.29296875 450.44140625 C94.1203149 451.81130372 92.95404669 453.18668377 91.79296875 454.56640625 C89.18742661 457.59110083 86.79893274 459.49364848 83.29296875 461.44140625 C82.79796875 462.10140625 82.30296875 462.76140625 81.79296875 463.44140625 C79.94144634 465.91010279 77.94705426 466.88154898 75.29296875 468.44140625 C73.86972127 469.47406326 72.45334294 470.51623554 71.04296875 471.56640625 C42.25096727 491.69532764 6.55585186 499.18371091 -28.09106445 493.13110352 C-42.72450514 490.02239331 -56.36046458 482.66048697 -68.70703125 474.44140625 C-70.30893152 473.47928932 -71.91278654 472.52041092 -73.51953125 471.56640625 C-74.57140625 470.86515625 -75.62328125 470.16390625 -76.70703125 469.44140625 C-76.70703125 468.78140625 -76.70703125 468.12140625 -76.70703125 467.44140625 C-77.44695312 467.18488281 -78.186875 466.92835938 -78.94921875 466.6640625 C-81.8327701 465.38566084 -83.54589014 464.03031281 -85.83203125 461.87890625 C-89.19676888 458.78245334 -92.63329494 455.85688902 -96.20703125 453.00390625 C-100.65945418 449.39837775 -104.70428215 445.56215757 -108.69140625 441.453125 C-110.4782649 439.66972925 -112.29736574 438.07518765 -114.26953125 436.50390625 C-115.07390625 435.82328125 -115.87828125 435.14265625 -116.70703125 434.44140625 C-116.70703125 433.78140625 -116.70703125 433.12140625 -116.70703125 432.44140625 C-117.32578125 432.19390625 -117.94453125 431.94640625 -118.58203125 431.69140625 C-121.11061752 430.20400256 -121.42542129 429.00462616 -122.70703125 426.44140625 C-124.64033728 425.3497435 -124.64033728 425.3497435 -126.70703125 424.44140625 C-128.45703125 422.94140625 -128.45703125 422.94140625 -129.70703125 421.44140625 C-129.70703125 420.78140625 -129.70703125 420.12140625 -129.70703125 419.44140625 C-130.27550781 419.19003906 -130.84398437 418.93867188 -131.4296875 418.6796875 C-134.02068257 417.27086171 -135.96036822 415.60865887 -138.14453125 413.62890625 C-138.93601563 412.9121875 -139.7275 412.19546875 -140.54296875 411.45703125 C-142.99149752 409.1764521 -145.3411255 406.807312 -147.70703125 404.44140625 C-157.28291353 395.72373984 -167.37126424 387.60077472 -177.66796875 379.7578125 C-180.29892314 377.75247066 -182.91341828 375.72883134 -185.51953125 373.69140625 C-190.49475123 369.81777762 -195.50296051 365.99945626 -200.65234375 362.359375 C-201.66039062 361.64394531 -202.6684375 360.92851562 -203.70703125 360.19140625 C-204.65578125 359.52625 -205.60453125 358.86109375 -206.58203125 358.17578125 C-207.28328125 357.6034375 -207.98453125 357.03109375 -208.70703125 356.44140625 C-208.70703125 355.78140625 -208.70703125 355.12140625 -208.70703125 354.44140625 C-209.44953125 354.19390625 -210.19203125 353.94640625 -210.95703125 353.69140625 C-213.9520882 352.33001673 -215.43536298 350.78406415 -217.70703125 348.44140625 C-218.83238281 347.77818359 -218.83238281 347.77818359 -219.98046875 347.1015625 C-223.02814447 345.24588602 -225.61235176 343.12556808 -228.33203125 340.81640625 C-229.39537477 339.91742606 -230.45918686 339.01899987 -231.5234375 338.12109375 C-232.32225342 337.44578613 -232.32225342 337.44578613 -233.13720703 336.75683594 C-235.48878578 334.78633729 -237.88123323 332.86712144 -240.26953125 330.94140625 C-245.07239201 327.02822158 -249.65619606 322.91389678 -254.19921875 318.703125 C-256.63019417 316.51070324 -259.14493938 314.47739244 -261.70703125 312.44140625 C-265.01441906 309.29535443 -267.86032409 305.9997902 -270.70703125 302.44140625 C-273.16213515 299.86039959 -275.56746326 297.54851657 -278.39453125 295.37890625 C-280.76270235 293.39476289 -281.39381277 292.14991936 -282.70703125 289.44140625 C-283.46371094 288.68730469 -284.22039062 287.93320312 -285 287.15625 C-293.03862261 279.0944279 -298.93122444 269.17664623 -304.70703125 259.44140625 C-305.23554688 258.58933594 -305.7640625 257.73726563 -306.30859375 256.859375 C-316.24654142 239.6761638 -318.83840536 217.05547089 -314.38671875 197.78515625 C-309.12528778 179.64229084 -299.59359775 163.05519363 -287.70703125 148.44140625 C-287.17078125 147.67828125 -286.63453125 146.91515625 -286.08203125 146.12890625 C-285.62828125 145.57203125 -285.17453125 145.01515625 -284.70703125 144.44140625 C-284.04703125 144.44140625 -283.38703125 144.44140625 -282.70703125 144.44140625 C-282.42859375 143.45140625 -282.42859375 143.45140625 -282.14453125 142.44140625 C-279.1664825 136.226348 -274.1280533 131.57850203 -268.70703125 127.44140625 C-266.12962226 124.92843248 -263.62857875 122.3591268 -261.14453125 119.75390625 C-258.70703125 117.44140625 -258.70703125 117.44140625 -256.51953125 116.37890625 C-254.55135147 115.59731632 -254.55135147 115.59731632 -253.875 113.6171875 C-252.41008662 110.88823515 -250.66466967 109.5585731 -248.20703125 107.69140625 C-247.41296875 107.0778125 -246.61890625 106.46421875 -245.80078125 105.83203125 C-243.70703125 104.44140625 -243.70703125 104.44140625 -241.70703125 104.44140625 C-241.48144531 103.86003906 -241.25585938 103.27867188 -241.0234375 102.6796875 C-239.33322821 99.80583015 -237.38292865 98.51997956 -234.64453125 96.62890625 C-230.24291312 93.53681278 -225.97644326 90.34525122 -221.77734375 86.984375 C-219.50568979 85.29134988 -217.14405057 83.88529439 -214.70703125 82.44140625 C-212.80509459 81.17972549 -210.90959941 79.90829818 -209.01953125 78.62890625 C-204.5710268 75.65241301 -200.08652665 72.79643988 -195.4765625 70.078125 C-193.31876694 68.80292565 -191.17261986 67.51326231 -189.03125 66.2109375 C-188.37938721 65.81575928 -187.72752441 65.42058105 -187.0559082 65.01342773 C-185.78103091 64.24030178 -184.50734188 63.46521141 -183.23510742 62.68774414 C-179.47592402 60.41647613 -175.6591049 58.3756833 -171.71630859 56.44189453 C-169.733838 55.45475425 -167.78550166 54.4209285 -165.83984375 53.36328125 C-156.33752832 48.2049826 -146.68838365 43.64829415 -136.77148438 39.34814453 C-133.72666206 38.01081363 -130.71872126 36.60181037 -127.70703125 35.19140625 C-119.13865043 31.22199446 -110.35695995 27.90166169 -101.50268555 24.63476562 C-98.46083446 23.5062211 -95.49096452 22.34387059 -92.53125 21.0078125 C-87.10255727 18.65079781 -81.37050751 17.12541335 -75.70703125 15.44140625 C-73.91048096 14.89806641 -73.91048096 14.89806641 -72.07763672 14.34375 C-57.14235445 9.8406104 -42.29241381 5.48109457 -26.88998413 2.85791016 C-24.88219077 2.47482641 -22.90190546 1.95434769 -20.9284668 1.421875 C-14.04461739 -0.10926759 -7.01723581 0.05058973 0 0 Z " fill="#FB1503" transform="translate(320.70703125,-0.44140625)"/>
<path d="M0 0 C5.1390186 0.8565031 7.91185046 1.73174413 12.375 4.0625 C13.43460938 4.61035156 14.49421875 5.15820312 15.5859375 5.72265625 C16.38257813 6.14417969 17.17921875 6.56570312 18 7 C18 7.66 18 8.32 18 9 C18.78375 9.226875 19.5675 9.45375 20.375 9.6875 C34.07103321 14.64640858 47.14683604 22.71093178 59.8503418 29.80371094 C63.09237687 31.6079099 66.3549561 33.37220105 69.625 35.125 C70.24117188 35.45886719 70.85734375 35.79273438 71.4921875 36.13671875 C74.51951596 37.75850185 77.53184109 39.25222339 80.7109375 40.5546875 C83.5815746 41.81613136 85.54905053 43.11307656 88 45 C89.60242422 45.71923992 91.22976616 46.38495931 92.875 47 C96.71656483 48.47752493 100.35967195 50.08403787 104 52 C104 52.66 104 53.32 104 54 C104.969375 54.226875 105.93875 54.45375 106.9375 54.6875 C110.74337433 55.77922491 113.90008899 57.51346306 117.3125 59.4921875 C120.67538424 61.37892197 124.10909229 63.09863167 127.5625 64.8125 C128.19486572 65.12662842 128.82723145 65.44075684 129.47875977 65.7644043 C130.98503695 66.51122444 132.49240138 67.25585104 134 68 C134 68.66 134 69.32 134 70 C135.60875 70.4021875 135.60875 70.4021875 137.25 70.8125 C140.56160307 71.86117431 142.52866834 72.62752161 145 75 C145 75.66 145 76.32 145 77 C145.61488281 77.12117188 146.22976563 77.24234375 146.86328125 77.3671875 C147.67152344 77.53476563 148.47976563 77.70234375 149.3125 77.875 C150.11300781 78.03742188 150.91351563 78.19984375 151.73828125 78.3671875 C154 79 154 79 157 81 C157 81.99 157 82.98 157 84 C156.24976563 84.35191406 155.49953125 84.70382813 154.7265625 85.06640625 C148.54335803 88.04898473 142.99070569 91.28602471 137.453125 95.33203125 C134.20232845 97.54236584 130.788772 99.21170807 127.2265625 100.859375 C124.93318152 101.94602072 124.93318152 101.94602072 122.8984375 103.640625 C121 105 121 105 118 105 C118 105.66 118 106.32 118 107 C116.730447 107.64834654 115.45930294 108.29357815 114.1875 108.9375 C113.47980469 109.29714844 112.77210938 109.65679687 112.04296875 110.02734375 C110 111 110 111 107 112 C106.58234375 112.433125 106.1646875 112.86625 105.734375 113.3125 C103.23359787 115.74568856 100.27095969 117.30469351 97.25 119 C96.65445313 119.34289062 96.05890625 119.68578125 95.4453125 120.0390625 C92.41780218 121.75596229 89.41096932 123.28485155 86.1875 124.6015625 C82.8996611 125.79791804 82.8996611 125.79791804 80.75 128.375 C78.09762679 130.90681079 76.61105923 131.71194835 73.3125 133.0625 C66.65875425 135.86983382 60.93150976 139.89416701 55.01879883 143.98657227 C54.26880615 144.50276123 53.51881348 145.0189502 52.74609375 145.55078125 C51.73567017 146.25714722 51.73567017 146.25714722 50.70483398 146.9777832 C49 148 49 148 47 148 C47 148.66 47 149.32 47 150 C46.10539062 150.35191406 45.21078125 150.70382812 44.2890625 151.06640625 C37.36159929 153.8949973 31.42465299 156.82476184 25.390625 161.3203125 C15.88372093 168 15.88372093 168 11 168 C11 168.66 11 169.32 11 170 C9.54462432 170.83848804 8.08559627 171.67063934 6.625 172.5 C5.81289062 172.9640625 5.00078125 173.428125 4.1640625 173.90625 C2 175 2 175 0 175 C0 117.25 0 59.5 0 0 Z " fill="#FEFDFC" transform="translate(222,160)"/>
<path d="M0 0 C0.99 0.33 1.98 0.66 3 1 C2.34 1 1.68 1 1 1 C1 58.75 1 116.5 1 176 C1.66 176.33 2.32 176.66 3 177 C2.01 177 1.02 177 0 177 C-0.33 151.92 -0.66 126.84 -1 101 C-4.79774445 108.04141114 -4.79774445 108.04141114 -5.54589844 114.95703125 C-5.56561707 116.05756836 -5.58533569 117.15810547 -5.60565186 118.29199219 C-5.60688049 119.45375977 -5.60810913 120.61552734 -5.609375 121.8125 C-5.62591125 123.02196289 -5.64244751 124.23142578 -5.65948486 125.47753906 C-5.70784341 129.31841168 -5.72931006 133.15888864 -5.75 137 C-5.77816964 139.61330102 -5.80809845 142.22658372 -5.83984375 144.83984375 C-5.91689205 151.22674242 -5.95752929 157.61240453 -6 164 C-16.23 164 -26.46 164 -37 164 C-36.99097656 160.16890625 -36.98195312 156.3378125 -36.97265625 152.390625 C-36.98770654 148.64718583 -37.01465529 144.9040061 -37.04272461 141.16064453 C-37.05579939 138.57506553 -37.05665867 135.9893929 -37.04467773 133.40380859 C-37.02955546 129.66932756 -37.05952752 125.93739794 -37.09765625 122.203125 C-37.08340103 121.06200256 -37.06914581 119.92088013 -37.05445862 118.74517822 C-37.21219293 109.84180781 -40.13394082 104.31628854 -45 97 C-49 89.73894854 -49 89.73894854 -49 87 C-49.66 87 -50.32 87 -51 87 C-51.25168945 86.46632813 -51.50337891 85.93265625 -51.76269531 85.3828125 C-52.92418735 82.92142883 -54.08708573 80.46071201 -55.25 78 C-55.64574219 77.16082031 -56.04148438 76.32164062 -56.44921875 75.45703125 C-60.99794748 65.49965872 -60.99794748 65.49965872 -66.5 56.0625 C-69.88421888 50.76682415 -72.61468092 45.15081673 -74 39 C-74.66 39 -75.32 39 -76 39 C-80.87508264 29.42325664 -80.87508264 29.42325664 -82.625 25.0625 C-83.89399646 21.75055571 -83.89399646 21.75055571 -87 19 C-87.66 16.03 -88.32 13.06 -89 10 C-77.45 10 -65.9 10 -54 10 C-47.25 23.5 -47.25 23.5 -47 29 C-46.34 29 -45.68 29 -45 29 C-43.55697227 31.99737087 -42.12161815 34.99835736 -40.6875 38 C-40.28337891 38.83917969 -39.87925781 39.67835938 -39.46289062 40.54296875 C-37.59431161 44.46242718 -35.81706025 48.35530573 -34.33203125 52.4375 C-33.14116503 56.03543229 -33.14116503 56.03543229 -31 59 C-30.7009375 59.91136719 -30.401875 60.82273438 -30.09375 61.76171875 C-28.88350787 65.3448999 -27.29475001 68.48536809 -25.5 71.8125 C-24.8915625 72.95332031 -24.283125 74.09414062 -23.65625 75.26953125 C-22.28278224 78.08060836 -22.28278224 78.08060836 -20 79 C-19.87753906 78.44828125 -19.75507813 77.8965625 -19.62890625 77.328125 C-18.92006389 74.70408745 -17.96388744 72.2663047 -16.9375 69.75 C-16.57527344 68.85796875 -16.21304688 67.9659375 -15.83984375 67.046875 C-15.56269531 66.37140625 -15.28554687 65.6959375 -15 65 C-14.34 65 -13.68 65 -13 65 C-12.67 62.36 -12.34 59.72 -12 57 C-11.34 57 -10.68 57 -10 57 C-9.855625 56.4225 -9.71125 55.845 -9.5625 55.25 C-9.04166667 53.16666667 -8.52083333 51.08333333 -8 49 C-7.34 49 -6.68 49 -6 49 C-5.80664062 48.24074219 -5.61328125 47.48148438 -5.4140625 46.69921875 C-5.15367187 45.70535156 -4.89328125 44.71148437 -4.625 43.6875 C-4.36976563 42.70136719 -4.11453125 41.71523437 -3.8515625 40.69921875 C-3 38 -3 38 -1 35 C-0.75952354 32.31995798 -0.62726502 29.73445797 -0.5859375 27.05078125 C-0.56657135 26.27816452 -0.5472052 25.50554779 -0.5272522 24.70951843 C-0.46751521 22.2439576 -0.42109514 19.77834993 -0.375 17.3125 C-0.33681475 15.6399537 -0.29776269 13.96742695 -0.2578125 12.29492188 C-0.16181867 8.19677353 -0.07776623 4.09853312 0 0 Z " fill="#FE4E40" transform="translate(221,159)"/>
<path d="M0 0 C36.96 0 73.92 0 112 0 C112 7.92 112 15.84 112 24 C98.8 24 85.6 24 72 24 C72 34.56 72 45.12 72 56 C66.59900003 54.45685715 63.55022063 53.37613377 59 50.5625 C55.65951292 48.54228071 52.4392594 46.63820376 48.8125 45.1875 C46 44 46 44 45 42 C43.3245492 41.12169275 41.6082105 40.32048443 39.875 39.5625 C38.88113281 39.12292969 37.88726562 38.68335938 36.86328125 38.23046875 C34.60337194 37.25929353 32.33682052 36.31148492 30.0625 35.375 C27.30308608 34.13607946 25.39373551 32.79530164 23 31 C21.33522832 30.28026788 19.66942272 29.56277751 17.99707031 28.86083984 C14.56435358 27.38116268 11.22269992 25.72369325 7.875 24.0625 C6.84052734 23.56073242 6.84052734 23.56073242 5.78515625 23.04882812 C1.79196498 21.06750282 -1.61082314 18.947397 -5 16 C-3.68 16 -2.36 16 -1 16 C-0.67 10.72 -0.34 5.44 0 0 Z " fill="#FE4D3E" transform="translate(280,170)"/>
<path d="M0 0 C0.66 0.33 1.32 0.66 2 1 C0.50260417 2.20442708 -0.99479167 3.40885417 -2.4921875 4.61328125 C-4.82653161 6.76015213 -5.93974166 8.43725317 -6.2784729 11.60063171 C-6.29179657 12.64209854 -6.30512024 13.68356537 -6.31884766 14.7565918 C-6.33871735 15.93758957 -6.35858704 17.11858734 -6.37905884 18.33537292 C-6.39061005 19.61044205 -6.40216125 20.88551117 -6.4140625 22.19921875 C-6.43342865 23.50454056 -6.4527948 24.80986237 -6.4727478 26.15473938 C-6.52407634 29.62180522 -6.56369793 33.08890989 -6.60089111 36.55615234 C-6.64092641 40.09547497 -6.69191407 43.63463856 -6.7421875 47.17382812 C-6.8399908 54.11582517 -6.91949722 61.0576943 -7 68 C-16.9 68 -26.8 68 -37 68 C-37 53.81 -37 39.62 -37 25 C-37.66 25 -38.32 25 -39 25 C-39 26.65 -39 28.3 -39 30 C-43.94261817 31.15327757 -48.95661339 31.53972977 -54 32 C-52.31397777 28.62795554 -48.53489739 27.63844109 -45.25 26.0625 C-43.81677868 25.3678001 -42.38446512 24.6712239 -40.953125 23.97265625 C-39.9312207 23.47403076 -39.9312207 23.47403076 -38.88867188 22.96533203 C-37.25659164 22.13114831 -35.67638943 21.19689034 -34.109375 20.24609375 C-32 19 -32 19 -30 19 C-29.67 18.01 -29.34 17.02 -29 16 C-27.00390625 14.83203125 -27.00390625 14.83203125 -24.5625 13.8125 C-23.75941406 13.46832031 -22.95632813 13.12414062 -22.12890625 12.76953125 C-20 12 -20 12 -18 12 C-18 11.34 -18 10.68 -18 10 C-15.67268231 8.65532755 -13.33833825 7.32532528 -11 6 C-10.0615625 5.45988281 -9.123125 4.91976563 -8.15625 4.36328125 C-7.1765625 3.81027344 -6.196875 3.25726563 -5.1875 2.6875 C-4.25292969 2.15511719 -3.31835938 1.62273437 -2.35546875 1.07421875 C-1.57816406 0.71972656 -0.80085938 0.36523438 0 0 Z " fill="#FD4D3F" transform="translate(358,255)"/>
<path d="M0 0 C14.84648004 -0.02311972 29.69295627 -0.0409796 44.53945065 -0.05181217 C51.43247527 -0.05697494 58.32548853 -0.06401728 65.21850586 -0.07543945 C71.86446165 -0.086447 78.51040869 -0.09227622 85.15637398 -0.09487724 C87.69822946 -0.09673201 90.24008426 -0.1003536 92.78193474 -0.10573006 C96.32851462 -0.11293667 99.8750449 -0.1139911 103.42163086 -0.11352539 C105.01521423 -0.1189183 105.01521423 -0.1189183 106.64099121 -0.12442017 C108.08187355 -0.12235817 108.08187355 -0.12235817 109.55186462 -0.12025452 C110.39161803 -0.12117631 111.23137144 -0.1220981 112.09657192 -0.12304783 C114 0 114 0 115 1 C115.09959621 2.84159023 115.13080411 4.68696967 115.1328125 6.53125 C115.13410156 7.65144531 115.13539063 8.77164063 115.13671875 9.92578125 C115.13285156 11.10527344 115.12898438 12.28476563 115.125 13.5 C115.12886719 14.67949219 115.13273437 15.85898438 115.13671875 17.07421875 C115.13542969 18.19441406 115.13414062 19.31460938 115.1328125 20.46875 C115.13168457 21.50451172 115.13055664 22.54027344 115.12939453 23.60742188 C115 26 115 26 114 27 C110.97022196 27.08871273 107.96332978 27.1151935 104.93359375 27.09765625 C104.02497086 27.0962413 103.11634796 27.09482635 102.18019104 27.09336853 C99.26592779 27.08775193 96.35174019 27.07519665 93.4375 27.0625 C91.46679798 27.05748714 89.49609476 27.05292386 87.52539062 27.04882812 C82.68356441 27.03777711 77.84179505 27.02050138 73 27 C73 26.67 73 26.34 73 26 C86.2 26 99.4 26 113 26 C113 18.08 113 10.16 113 2 C76.04 2 39.08 2 1 2 C1 7.61 1 13.22 1 19 C0.67 19 0.34 19 0 19 C0 12.73 0 6.46 0 0 Z " fill="#FB2C1E" transform="translate(279,168)"/>
<path d="M0 0 C8.58 0 17.16 0 26 0 C26 4.62 26 9.24 26 14 C18.9150298 13.27704386 13.65635815 11.24226861 8 7 C6.783125 6.525625 5.56625 6.05125 4.3125 5.5625 C3.219375 5.046875 2.12625 4.53125 1 4 C0.67 2.68 0.34 1.36 0 0 Z " fill="#F91C0A" transform="translate(295,194)"/>
<path d="M0 0 C0.99 0.495 0.99 0.495 2 1 C0.05417429 3.91873857 -0.62691827 4.54874491 -3.5625 6.0625 C-7.03054748 7.59476621 -7.03054748 7.59476621 -8 10 C-8.66 10 -9.32 10 -10 10 C-10.33 10.99 -10.66 11.98 -11 13 C-12.5234375 14.24609375 -12.5234375 14.24609375 -14.375 15.4375 C-17.21329608 17.35291453 -19.0183242 19.18393439 -21 22 C-21.66 22 -22.32 22 -23 22 C-23.22042969 22.5878125 -23.44085938 23.175625 -23.66796875 23.78125 C-25.417068 26.69470564 -27.40463369 27.76865876 -30.3125 29.5 C-37.39136656 33.74925141 -43.38914972 38.23236035 -47.4375 45.625 C-49 48 -49 48 -52 49.75 C-55.27322127 52.20491595 -55.45561162 52.7676044 -56.4375 56.5 C-57.58041566 60.6770846 -57.58041566 60.6770846 -59.59375 62.2265625 C-60.8148289 62.82157976 -62.0441276 63.40003878 -63.28125 63.9609375 C-66.38978348 65.84018729 -67.46062872 68.79810773 -69 72 C-69.66 72 -70.32 72 -71 72 C-69.4048176 66.89541633 -66.24166352 63.14899937 -63 59 C-62.48308594 58.25878906 -61.96617188 57.51757812 -61.43359375 56.75390625 C-60.72396484 55.88572266 -60.72396484 55.88572266 -60 55 C-59.34 55 -58.68 55 -58 55 C-57.814375 54.34 -57.62875 53.68 -57.4375 53 C-54.45945125 46.78494175 -49.42102205 42.13709578 -44 38 C-41.42259101 35.48702623 -38.9215475 32.91772055 -36.4375 30.3125 C-34 28 -34 28 -31.8125 26.9375 C-29.84432022 26.15591007 -29.84432022 26.15591007 -29.16796875 24.17578125 C-27.70305537 21.4468289 -25.95763842 20.11716685 -23.5 18.25 C-22.7059375 17.63640625 -21.911875 17.0228125 -21.09375 16.390625 C-19 15 -19 15 -17 15 C-16.67128906 14.13568359 -16.67128906 14.13568359 -16.3359375 13.25390625 C-14.5777062 10.28753356 -12.4473013 8.90100452 -9.625 6.9375 C-8.66851562 6.26589844 -7.71203125 5.59429687 -6.7265625 4.90234375 C-5.82679687 4.27457031 -4.92703125 3.64679688 -4 3 C-2.66188081 2.00641316 -1.32651287 1.00902993 0 0 Z " fill="#F15A53" transform="translate(96,89)"/>
<path d="M0 0 C6.75 1.125 6.75 1.125 10.375 3.0625 C11.06335938 3.42472656 11.75171875 3.78695312 12.4609375 4.16015625 C13.22277344 4.57587891 13.22277344 4.57587891 14 5 C14 5.33 14 5.66 14 6 C11.69 5.67 9.38 5.34 7 5 C7 4.34 7 3.68 7 3 C5.35 3.33 3.7 3.66 2 4 C1.67 59.77 1.34 115.54 1 173 C1.66 173.33 2.32 173.66 3 174 C2.01 174.33 1.02 174.66 0 175 C0 117.25 0 59.5 0 0 Z " fill="#FFE9E6" transform="translate(222,160)"/>
<path d="M0 0 C1.53271273 4.58798777 0.02911182 6.77944742 -2 11 C-2.66 11 -3.32 11 -4 11 C-4 12.98 -4 14.96 -4 17 C-3.34 17 -2.68 17 -2 17 C-2.54060257 20.89233849 -3.62218144 22.92865102 -6 26 C-6.70514846 28.14733927 -6.70514846 28.14733927 -7 30 C-7.66 30 -8.32 30 -9 30 C-8.89015099 34.41718056 -8.75951247 38.8335071 -8.625 43.25 C-8.57859375 45.13138672 -8.57859375 45.13138672 -8.53125 47.05078125 C-8.49257812 48.25605469 -8.45390625 49.46132812 -8.4140625 50.703125 C-8.3826416 51.81333008 -8.3512207 52.92353516 -8.31884766 54.06738281 C-8.00834206 56.92327345 -7.40183092 58.54131998 -6 61 C-5.5859375 63.359375 -5.5859375 63.359375 -5.375 65.75 C-5.30023437 66.54921875 -5.22546875 67.3484375 -5.1484375 68.171875 C-5.09945313 68.77515625 -5.05046875 69.3784375 -5 70 C-4.34 70 -3.68 70 -3 70 C-1.57741188 73.82320557 -0.75957724 76.91281305 -1 81 C-4.80330083 79.09834959 -5.59373845 73.82394967 -7 70 C-7.29390625 69.20207031 -7.5878125 68.40414062 -7.890625 67.58203125 C-14.63740466 48.36693821 -12.19046776 25.2823047 -3.62890625 7.0859375 C-2.44673533 4.70819995 -1.24215447 2.34685742 0 0 Z " fill="#E14C42" transform="translate(16,174)"/>
<path d="M0 0 C0.33 0 0.66 0 1 0 C4.967918 36.22308117 5.27698565 74.40092579 -3 110 C-3.33 110 -3.66 110 -4 110 C-4.52901914 94.03145914 -4.52901914 94.03145914 -1.76792908 87.3180542 C1.44488668 77.61991765 0.13246043 66.00068517 0.09765625 55.859375 C0.09578657 54.23984827 0.09436527 52.62032096 0.09336853 51.00079346 C0.08958663 46.77917871 0.07979434 42.55759945 0.06866455 38.33599854 C0.05835636 34.01176432 0.05385094 29.68752426 0.04882812 25.36328125 C0.03816731 16.90883804 0.02114421 8.45442346 0 0 Z " fill="#E3433B" transform="translate(487,172)"/>
<path d="M0 0 C0.33 0 0.66 0 1 0 C1 25.08 1 50.16 1 76 C0.67 76 0.34 76 0 76 C-0.01030746 75.21739304 -0.02061493 74.43478607 -0.03123474 73.62846375 C-0.12917403 66.25653451 -0.2316834 58.88468977 -0.33933926 51.51289654 C-0.39452584 47.72290121 -0.447939 43.93289811 -0.49731445 40.14282227 C-0.54502094 36.48584602 -0.59736599 32.828963 -0.65294075 29.17209816 C-0.67333583 27.7762668 -0.69205361 26.3804099 -0.70907402 24.98453331 C-0.73318077 23.03088898 -0.76378046 21.07732803 -0.79467773 19.1237793 C-0.81022202 18.0112529 -0.8257663 16.8987265 -0.84178162 15.75248718 C-0.88493745 12.90974714 -0.88493745 12.90974714 -2 10 C-3.66623578 11.66623578 -3.16740691 13.68758912 -3.20532227 15.97875977 C-3.22526749 17.03978409 -3.24521271 18.10080841 -3.26576233 19.19398499 C-3.28247482 20.348134 -3.29918732 21.50228302 -3.31640625 22.69140625 C-3.33718735 23.86638168 -3.35796844 25.04135712 -3.37937927 26.25193787 C-3.44500124 30.02206324 -3.5038183 33.79226082 -3.5625 37.5625 C-3.6056732 40.11133573 -3.64928708 42.66016403 -3.69335938 45.20898438 C-3.80069545 51.47257892 -3.9024379 57.73624601 -4 64 C-4.33 64 -4.66 64 -5 64 C-5.1017053 56.31375473 -5.17159403 48.62768405 -5.21972656 40.94091797 C-5.23979933 38.32789627 -5.26706358 35.71491925 -5.30175781 33.10205078 C-5.35046435 29.33875478 -5.37301311 25.57605451 -5.390625 21.8125 C-5.41127014 20.65073242 -5.43191528 19.48896484 -5.45318604 18.29199219 C-5.45508671 11.36847154 -4.68882342 6.9035315 -1 1 C-0.67 0.67 -0.34 0.34 0 0 Z " fill="#EB2818" transform="translate(220,259)"/>
<path d="M0 0 C1.32 0.66 2.64 1.32 4 2 C1.30216379 5.6970348 -1.08097754 7.71633713 -5 10 C-6.42324748 11.03265701 -7.83962581 12.07482929 -9.25 13.125 C-13.84532275 16.3630835 -18.61234327 19.10362843 -23.5625 21.75 C-24.25827148 22.12656738 -24.95404297 22.50313477 -25.67089844 22.89111328 C-31.34602248 25.8696887 -37.49149637 29 -44 29 C-44 28.34 -44 27.68 -44 27 C-40.38026598 25.68373308 -37.90432869 25 -34 25 C-34 24.34 -34 23.68 -34 23 C-33.0925 22.7525 -32.185 22.505 -31.25 22.25 C-27.96985 21.26854451 -27.96985 21.26854451 -26.1875 19 C-23.29915302 16.35922561 -20.72731602 16.14358613 -16.92578125 15.58984375 C-16.29027344 15.39519531 -15.65476562 15.20054687 -15 15 C-14.67 14.01 -14.34 13.02 -14 12 C-13.2575 11.71125 -12.515 11.4225 -11.75 11.125 C-8.77750821 10.11589405 -8.77750821 10.11589405 -6.375 7.375 C-5.59125 6.59125 -4.8075 5.8075 -4 5 C-3.01 5 -2.02 5 -1 5 C-0.67 3.35 -0.34 1.7 0 0 Z " fill="#E73D32" transform="translate(401,458)"/>
<path d="M0 0 C7.75 -0.125 7.75 -0.125 10 1 C11.4494793 1.11767472 12.90393996 1.17689268 14.35791016 1.20532227 C15.25869293 1.22526749 16.15947571 1.24521271 17.08755493 1.26576233 C18.54855118 1.29083107 18.54855118 1.29083107 20.0390625 1.31640625 C21.03505463 1.33718735 22.03104675 1.35796844 23.05722046 1.37937927 C26.24640854 1.44489042 29.43568058 1.50376704 32.625 1.5625 C34.78386293 1.60568373 36.9427173 1.64929797 39.1015625 1.69335938 C44.4009523 1.80057336 49.70042606 1.90233685 55 2 C42.96996302 10.02002466 18.73415395 5.42228148 5.25390625 2.8515625 C2 2 2 2 0 0 Z " fill="#DE3728" transform="translate(284,489)"/>
<path d="M0 0 C8.25 0.66 16.5 1.32 25 2 C24.67 5.3 24.34 8.6 24 12 C19.5866564 10.8966641 16.55615155 9.7782434 13 7 C10.68020619 5.96898053 8.34570085 4.97063483 6 4 C3.9927542 3.01462479 1.99019747 2.01936943 0 1 C0 0.67 0 0.34 0 0 Z " fill="#FC4F40" transform="translate(240,168)"/>
<path d="M0 0 C0.66 0.33 1.32 0.66 2 1 C0.05417429 3.91873857 -0.62691827 4.54874491 -3.5625 6.0625 C-7.03054748 7.59476621 -7.03054748 7.59476621 -8 10 C-8.66 10 -9.32 10 -10 10 C-10.33 10.99 -10.66 11.98 -11 13 C-12.5234375 14.24609375 -12.5234375 14.24609375 -14.375 15.4375 C-17.21329608 17.35291453 -19.0183242 19.18393439 -21 22 C-21.66 22 -22.32 22 -23 22 C-23.185625 22.5775 -23.37125 23.155 -23.5625 23.75 C-25.70551122 27.10427843 -28.48822563 28.17907996 -32 30 C-30.71392069 24.71788855 -28.75018799 22.44685745 -24.5 19.125 C-23.5203125 18.34382813 -22.540625 17.56265625 -21.53125 16.7578125 C-19 15 -19 15 -17 15 C-16.78085938 14.42378906 -16.56171875 13.84757812 -16.3359375 13.25390625 C-14.5777062 10.28753356 -12.4473013 8.90100452 -9.625 6.9375 C-8.66851562 6.26589844 -7.71203125 5.59429687 -6.7265625 4.90234375 C-5.82679687 4.27457031 -4.92703125 3.64679688 -4 3 C-2.66188081 2.00641316 -1.32651287 1.00902993 0 0 Z " fill="#EC2B1F" transform="translate(96,89)"/>
<path d="M0 0 C-0.3619358 6.75613495 -1.99342982 12.67946075 -4.09643555 19.0625 C-5.61440832 23.67175217 -6.84732425 28.28540778 -8 33 C-8.645124 35.00705243 -9.30356015 37.01017187 -10 39 C-10.33 39 -10.66 39 -11 39 C-11.09765625 32.84765625 -11.09765625 32.84765625 -11 31 C-10.67 30.67 -10.34 30.34 -10 30 C-9.76924918 28.65252916 -9.58846937 27.29622435 -9.4375 25.9375 C-9.293125 24.638125 -9.14875 23.33875 -9 22 C-8.01 21.67 -7.02 21.34 -6 21 C-6.02320313 20.30132812 -6.04640625 19.60265625 -6.0703125 18.8828125 C-6.09738281 17.51769531 -6.09738281 17.51769531 -6.125 16.125 C-6.14820313 15.22007812 -6.17140625 14.31515625 -6.1953125 13.3828125 C-6 11 -6 11 -4 9 C-3.61596877 7.05848638 -3.61596877 7.05848638 -3.5 4.9375 C-3.335 3.638125 -3.17 2.33875 -3 1 C-1 0 -1 0 0 0 Z " fill="#E13F34" transform="translate(476,314)"/>
<path d="M0 0 C0.66 0.33 1.32 0.66 2 1 C1.67 1.99 1.34 2.98 1 4 C-0.65 4 -2.3 4 -4 4 C-4 4.66 -4 5.32 -4 6 C-5.72601379 6.81917642 -7.4559647 7.63006016 -9.1875 8.4375 C-10.63189453 9.11619141 -10.63189453 9.11619141 -12.10546875 9.80859375 C-14.76631586 10.90381422 -17.16784755 11.54954796 -20 12 C-20 12.66 -20 13.32 -20 14 C-20.66 14 -21.32 14 -22 14 C-22 14.66 -22 15.32 -22 16 C-26.0188515 17.81242323 -29.61110675 19.33501617 -34 20 C-31.21151738 16.98507448 -28.57267949 15.02021876 -24.9375 13.125 C-23.97070312 12.61453125 -23.00390625 12.1040625 -22.0078125 11.578125 C-21.01523438 11.05734375 -20.02265625 10.5365625 -19 10 C-17.10254729 8.96128605 -15.20666695 7.91969375 -13.3125 6.875 C-11.54300419 5.91419927 -9.77224205 4.9557257 -8 4 C-7.20851562 3.57074219 -6.41703125 3.14148437 -5.6015625 2.69921875 C-3.76663798 1.73538656 -1.8868804 0.85767291 0 0 Z " fill="#EC554B" transform="translate(159,51)"/>
<path d="M0 0 C1.81934011 5.45802033 -1.85415972 10.87600116 -4 16 C-4.29567871 16.71172363 -4.59135742 17.42344727 -4.89599609 18.15673828 C-5.81595936 20.35913325 -6.74875157 22.55555202 -7.6875 24.75 C-7.98462891 25.45342529 -8.28175781 26.15685059 -8.58789062 26.8815918 C-10.76601643 31.88300821 -10.76601643 31.88300821 -13 33 C-12.67 29.7 -12.34 26.4 -12 23 C-11.01 23 -10.02 23 -9 23 C-9 20.36 -9 17.72 -9 15 C-8.34 14.67 -7.68 14.34 -7 14 C-6.27408299 12.05322256 -5.55201454 10.10477215 -4.86328125 8.14453125 C-3.63343737 5.08939873 -1.92887536 2.66051774 0 0 Z " fill="#E4493E" transform="translate(457,373)"/>
<path d="M0 0 C1.98 0 3.96 0 6 0 C5.01 0.33 4.02 0.66 3 1 C3.01047363 2.04978027 3.02094727 3.09956055 3.03173828 4.18115234 C3.06788453 8.06865033 3.09088078 11.95613341 3.10986328 15.84375 C3.11993317 17.52769466 3.13358988 19.21162179 3.15087891 20.89550781 C3.17508426 23.31319501 3.18647296 25.73065143 3.1953125 28.1484375 C3.20563507 28.9036972 3.21595764 29.65895691 3.22659302 30.43710327 C3.22699318 32.2929398 3.12222716 34.1481928 3 36 C2.34 36.66 1.68 37.32 1 38 C0.67 25.46 0.34 12.92 0 0 Z " fill="#EA2614" transform="translate(218,158)"/>
<path d="M0 0 C4.47157153 6.70735729 0.97846841 17.5544072 -0.50537109 25.13110352 C-1.30991562 29.0935382 -2.14521024 33.04808829 -3 37 C-3.33 37 -3.66 37 -4 37 C-4.52915104 21.02747777 -4.52915104 21.02747777 -1.734375 14.23828125 C-0.23617641 9.6719632 -0.23417226 4.77226918 0 0 Z " fill="#E54A39" transform="translate(487,245)"/>
<path d="M0 0 C3.80059339 3.69675204 7.28073323 7.56469022 10.6875 11.625 C11.41549805 12.48351562 11.41549805 12.48351562 12.15820312 13.359375 C18 20.28895474 18 20.28895474 18 24 C18.66 24 19.32 24 20 24 C19.67 24.66 19.34 25.32 19 26 C17.68 25.34 16.36 24.68 15 24 C15 22.68 15 21.36 15 20 C14.01 20 13.02 20 12 20 C12 18.68 12 17.36 12 16 C11.34 16 10.68 16 10 16 C8.62926214 14.36395804 7.29944744 12.69321939 6 11 C5.13375 10.1646875 5.13375 10.1646875 4.25 9.3125 C3 8 3 8 3 6 C2.01 6 1.02 6 0 6 C0 4.02 0 2.04 0 0 Z " fill="#E94940" transform="translate(425,28)"/>
<path d="M0 0 C0 0.33 0 0.66 0 1 C-5.94 1.495 -5.94 1.495 -12 2 C-12 2.66 -12 3.32 -12 4 C-18.96779403 5.32719886 -25.92988911 5.08825381 -33 5 C-23.04039963 -0.57349899 -11.06155818 -0.41829422 0 0 Z " fill="#EF4B41" transform="translate(320,0)"/>
<path d="M0 0 C1.53271273 4.58798777 0.02911182 6.77944742 -2 11 C-2.66 11 -3.32 11 -4 11 C-4 12.98 -4 14.96 -4 17 C-3.34 17 -2.68 17 -2 17 C-2.54060257 20.89233849 -3.62218144 22.92865102 -6 26 C-6.70514846 28.14733927 -6.70514846 28.14733927 -7 30 C-7.66 30 -8.32 30 -9 30 C-8.86078125 29.32324219 -8.7215625 28.64648438 -8.578125 27.94921875 C-8.16317232 25.83239935 -7.78162442 23.70892815 -7.421875 21.58203125 C-6.01938947 13.7134351 -4.12813198 6.93460906 0 0 Z " fill="#F32012" transform="translate(16,174)"/>
<path d="M0 0 C6.75 1.125 6.75 1.125 10.375 3.0625 C11.06335938 3.42472656 11.75171875 3.78695312 12.4609375 4.16015625 C13.22277344 4.57587891 13.22277344 4.57587891 14 5 C14 5.33 14 5.66 14 6 C11.69 5.67 9.38 5.34 7 5 C7 4.34 7 3.68 7 3 C5.35 3.33 3.7 3.66 2 4 C1.67 14.56 1.34 25.12 1 36 C0.67 36 0.34 36 0 36 C0 24.12 0 12.24 0 0 Z " fill="#FFE8E7" transform="translate(222,160)"/>
<path d="M0 0 C-7.39892684 5.3331296 -15.2558668 6.44730261 -24.05615234 7.71679688 C-26.71105406 8.10359491 -29.35515489 8.55016808 -32 9 C-28.18725328 5.18725328 -22.18885746 4.36415258 -17.125 2.8125 C-15.92746094 2.43158203 -14.72992188 2.05066406 -13.49609375 1.65820312 C-12.34496094 1.30306641 -11.19382812 0.94792969 -10.0078125 0.58203125 C-8.95223145 0.25436768 -7.89665039 -0.0732959 -6.80908203 -0.41088867 C-4.03821815 -0.99198502 -2.61920513 -0.96557111 0 0 Z " fill="#F06255" transform="translate(269,10)"/>
<path d="M0 0 C2.34742347 2.34742347 2.85991838 4.06339081 3.91015625 7.19921875 C4.26013672 8.24400391 4.61011719 9.28878906 4.97070312 10.36523438 C5.51114258 12.00975586 5.51114258 12.00975586 6.0625 13.6875 C6.60874023 15.30301758 6.60874023 15.30301758 7.16601562 16.95117188 C8.94246831 22.30679911 10.47679371 27.37352009 11 33 C9 32 9 32 8 29.25 C7.505 27.64125 7.505 27.64125 7 26 C6.67 25.236875 6.34 24.47375 6 23.6875 C5.11900313 21.31982092 4.57306123 19.15169635 4.0625 16.6875 C3.40822261 13.54696853 2.55957754 10.66840873 1.375 7.6875 C0 4 0 4 0 0 Z " fill="#E9675F" transform="translate(467,98)"/>
<path d="M0 0 C1.93217878 2.89826817 2.5323284 4.60557211 3.2890625 7.9296875 C3.50820313 8.89003906 3.72734375 9.85039062 3.953125 10.83984375 C4.17484375 11.84144531 4.3965625 12.84304687 4.625 13.875 C4.85445313 14.86886719 5.08390625 15.86273438 5.3203125 16.88671875 C6.32619172 21.35928886 7.13538431 25.39590004 7 30 C5 29 5 29 4.31396484 26.97802734 C4.11496582 26.1061377 3.9159668 25.23424805 3.7109375 24.3359375 C3.49179687 23.37816406 3.27265625 22.42039063 3.046875 21.43359375 C2.82515625 20.42425781 2.6034375 19.41492188 2.375 18.375 C2.14554687 17.38886719 1.91609375 16.40273437 1.6796875 15.38671875 C0.50319071 10.14150388 -0.28605295 5.37478436 0 0 Z " fill="#E5483D" transform="translate(478,131)"/>
<path d="M0 0 C1.31571603 0.2547514 2.62760376 0.52934141 3.9375 0.8125 C4.66839844 0.96332031 5.39929688 1.11414063 6.15234375 1.26953125 C6.76207031 1.51058594 7.37179688 1.75164062 8 2 C8.33 2.99 8.66 3.98 9 5 C10.31647119 5.69937532 11.65022151 6.36729133 13 7 C13.33 7.66 13.66 8.32 14 9 C15.78115049 9.97153663 17.56232057 10.94303744 19.34375 11.9140625 C21.42629826 13.27950688 22.24266041 14.6438324 23 17 C19.22272911 15.18690997 15.62730178 13.0926741 12 11 C12 10.34 12 9.68 12 9 C11.319375 8.79375 10.63875 8.5875 9.9375 8.375 C6.05852171 6.55930804 3.03879438 4.00376505 0 1 C0 0.67 0 0.34 0 0 Z " fill="#E04535" transform="translate(232,458)"/>
<path d="M0 0 C1.953125 0.52083333 3.90625 1.04166667 5.859375 1.5625 C8.28901861 2.13349349 8.28901861 2.13349349 12 2 C11.79375 2.78375 11.5875 3.5675 11.375 4.375 C11.25125 5.24125 11.1275 6.1075 11 7 C11.66 7.66 12.32 8.32 13 9 C13 9.99 13 10.98 13 12 C9.45566346 10.58226538 8.66193881 9.32387762 7 6 C5.67532254 5.3162955 4.34136367 4.65035814 3 4 C1.25 1.875 1.25 1.875 0 0 Z " fill="#E6392B" transform="translate(191,420)"/>
<path d="M0 0 C0.53625 0.226875 1.0725 0.45375 1.625 0.6875 C0.985625 0.790625 0.34625 0.89375 -0.3125 1 C-0.993125 1.226875 -1.67375 1.45375 -2.375 1.6875 C-2.705 2.6775 -3.035 3.6675 -3.375 4.6875 C-6.01490887 6.34031251 -8.59168865 7.07647325 -11.625 7.6875 C-15.90661184 8.58216516 -20.13613148 9.60851528 -24.375 10.6875 C-22.76882989 7.47515979 -19.39523013 6.95707949 -16.1875 5.75 C-12.37111632 4.29418925 -8.67586348 2.84162655 -5.03515625 0.9765625 C-2.375 -0.3125 -2.375 -0.3125 0 0 Z " fill="#EF6C62" transform="translate(215.375,26.3125)"/>
<path d="M0 0 C1.65 0 3.3 0 5 0 C5 1.65 5 3.3 5 5 C5.58910156 5.25910156 6.17820313 5.51820313 6.78515625 5.78515625 C9.15357165 7.08423419 10.60315957 8.4675963 12.4375 10.4375 C15.08471612 13.17599944 17.58314529 15.23980212 21 17 C20.67 17.99 20.34 18.98 20 20 C17.62890516 17.86601465 15.25835421 15.73147123 12.890625 13.59375 C10.97386272 11.87384439 9.04681975 10.16532324 7.109375 8.46875 C6.20703125 7.6746875 5.3046875 6.880625 4.375 6.0625 C3.53710938 5.33160156 2.69921875 4.60070312 1.8359375 3.84765625 C0 2 0 2 0 0 Z " fill="#E24E40" transform="translate(204,432)"/>
<path d="M0 0 C0.66 0 1.32 0 2 0 C0.93236517 10.69039612 -0.94784401 20.6878613 -4 31 C-4.33 31 -4.66 31 -5 31 C-4.23316717 24.28415883 -3.1160389 17.65478858 -1.9375 11 C-1.75123047 9.93910156 -1.56496094 8.87820313 -1.37304688 7.78515625 C-0.91710462 5.18979262 -0.45938174 2.59475665 0 0 Z " fill="#DE5850" transform="translate(481,283)"/>
<path d="M0 0 C7.59 0 15.18 0 23 0 C22.67 1.98 22.34 3.96 22 6 C21.34 6 20.68 6 20 6 C20.33 4.68 20.66 3.36 21 2 C19.81921875 2.02320313 18.6384375 2.04640625 17.421875 2.0703125 C15.86458967 2.08907497 14.30729748 2.10727466 12.75 2.125 C11.97269531 2.14175781 11.19539062 2.15851563 10.39453125 2.17578125 C9.64042969 2.18222656 8.88632813 2.18867188 8.109375 2.1953125 C7.41811523 2.20578613 6.72685547 2.21625977 6.01464844 2.22705078 C4 2 4 2 0 0 Z " fill="#FB2D1D" transform="translate(244,168)"/>
<path d="M0 0 C0.33 1.32 0.66 2.64 1 4 C-3.94261817 5.15327757 -8.95661339 5.53972977 -14 6 C-12.4064832 2.81296641 -9.2118075 2.10977088 -6 1 C-4.01178687 0.60235737 -2.01267638 0.24544834 0 0 Z " fill="#F23E2D" transform="translate(318,281)"/>
<path d="M0 0 C5.30081339 0.56158488 9.71682735 1.82992806 14.625 3.875 C15.26695312 4.13152344 15.90890625 4.38804687 16.5703125 4.65234375 C20.25481706 6.15483639 23.64898364 7.85586309 27 10 C23.45443154 11.18185615 22.98204438 10.80951792 19.75 9.25 C18.95207031 8.87488281 18.15414063 8.49976563 17.33203125 8.11328125 C16.56246094 7.74589844 15.79289062 7.37851563 15 7 C10.05137866 4.82955205 5.06847713 2.86733368 0 1 C0 0.67 0 0.34 0 0 Z " fill="#ED685E" transform="translate(376,1)"/>
<path d="M0 0 C1.32 0 2.64 0 4 0 C4.33 0.66 4.66 1.32 5 2 C5.969375 2.28875 6.93875 2.5775 7.9375 2.875 C11 4 11 4 12.375 6.125 C12.58125 6.74375 12.7875 7.3625 13 8 C13.66 8 14.32 8 15 8 C15.33 9.32 15.66 10.64 16 12 C13.06753467 10.68544658 11.25126383 9.25126383 9 7 C8.195625 6.525625 7.39125 6.05125 6.5625 5.5625 C3.95373206 3.97178784 2.0743035 2.22795561 0 0 Z " fill="#E34A3F" transform="translate(120,361)"/>
<path d="M0 0 C0.66 0.33 1.32 0.66 2 1 C-0.19055962 4.06678347 -2.33205839 6.34912442 -5.4375 8.4375 C-7.97977379 10.15230995 -9.8486009 11.84309298 -11.75 14.25 C-14 17 -14 17 -17 18 C-17 17.34 -17 16.68 -17 16 C-15.35648543 14.63823078 -13.68477344 13.31037934 -12 12 C-10.31237149 10.3545622 -8.6459651 8.68711423 -7 7 C-4.66666667 4.66666667 -2.33333333 2.33333333 0 0 Z " fill="#F27772" transform="translate(64,115)"/>
<path d="M0 0 C0.99 0.33 1.98 0.66 3 1 C0.21740164 4.60707195 -2.78207151 7.78207151 -6 11 C-7.70807204 12.9694164 -9.35395716 14.97771879 -11 17 C-11.33 15.68 -11.66 14.36 -12 13 C-11.01 13 -10.02 13 -9 13 C-9 11.68 -9 10.36 -9 9 C-8.21625 8.938125 -7.4325 8.87625 -6.625 8.8125 C-5.325625 8.4103125 -5.325625 8.4103125 -4 8 C-2.73854232 5.63813861 -2.73854232 5.63813861 -2 3 C-1.34 2.01 -0.68 1.02 0 0 Z " fill="#E0463F" transform="translate(424,436)"/>
<path d="M0 0 C0.66 0 1.32 0 2 0 C2 0.66 2 1.32 2 2 C2.66 2 3.32 2 4 2 C4 2.66 4 3.32 4 4 C5.65 3.34 7.3 2.68 9 2 C9.33 3.65 9.66 5.3 10 7 C10.66 7 11.32 7 12 7 C12 8.32 12 9.64 12 11 C8.81293058 9.56438314 6.37830895 7.79733671 3.75 5.5 C3.04359375 4.8915625 2.3371875 4.283125 1.609375 3.65625 C0 2 0 2 0 0 Z " fill="#E3433B" transform="translate(59,310)"/>
<path d="M0 0 C0.66 0.33 1.32 0.66 2 1 C-0.94745771 6.30542388 -3.14821828 8.22356626 -9 10 C-11.21875 9.56640625 -11.21875 9.56640625 -13 9 C-11.71802734 8.15115234 -11.71802734 8.15115234 -10.41015625 7.28515625 C-9.2942305 6.54433159 -8.17834728 5.80344286 -7.0625 5.0625 C-6.49853516 4.68931641 -5.93457031 4.31613281 -5.35351562 3.93164062 C-2.53966389 2.14034283 -2.53966389 2.14034283 0 0 Z " fill="#F44B40" transform="translate(290,294)"/>
<path d="M0 0 C0 0.66 0 1.32 0 2 C-0.99 2 -1.98 2 -3 2 C-3.20625 2.5775 -3.4125 3.155 -3.625 3.75 C-6.01564992 7.6619726 -9.49998985 9.608693 -13.875 10.75 C-14.926875 10.87375 -14.926875 10.87375 -16 11 C-13.75906029 7.57961833 -11.54760006 5.98005585 -8 4 C-6.4221875 2.9171875 -6.4221875 2.9171875 -4.8125 1.8125 C-2 0 -2 0 0 0 Z " fill="#ED5C54" transform="translate(114,78)"/>
<path d="M0 0 C-6.93873478 3.73353242 -13.20129894 6.70021649 -21 8 C-21 7.34 -21 6.68 -21 6 C-17.38026598 4.68373308 -14.90432869 4 -11 4 C-11 3.34 -11 2.68 -11 2 C-9.54494642 1.47007308 -8.08581873 0.9513211 -6.625 0.4375 C-5.40683594 0.00244141 -5.40683594 0.00244141 -4.1640625 -0.44140625 C-2 -1 -2 -1 0 0 Z " fill="#D74A38" transform="translate(378,479)"/>
<path d="M0 0 C0.66 0.33 1.32 0.66 2 1 C0.02 1.99 0.02 1.99 -2 3 C-2 3.66 -2 4.32 -2 5 C-2.66 5 -3.32 5 -4 5 C-4 5.66 -4 6.32 -4 7 C-8.0188515 8.81242323 -11.61110675 10.33501617 -16 11 C-13.06166824 7.78249183 -10.17069535 5.81628904 -6.3125 3.8125 C-2.94126398 2.21263044 -2.94126398 2.21263044 0 0 Z " fill="#F07166" transform="translate(141,60)"/>
<path d="M0 0 C4.60853797 0.72008406 8.67237409 2.31295939 13 4 C13 4.66 13 5.32 13 6 C13.99 6 14.98 6 16 6 C16 6.99 16 7.98 16 9 C10.0942118 7.44584521 5.02261107 4.40465533 0 1 C0 0.67 0 0.34 0 0 Z " fill="#E13F35" transform="translate(255,475)"/>
<path d="M0 0 C2.50771622 3.76157432 2.079927 5.37287407 1.6875 9.8125 C1.58824219 11.01519531 1.48898437 12.21789062 1.38671875 13.45703125 C1.03630728 16.66736662 0.56940362 19.82204649 0 23 C-2.10862202 19.89908526 -2.02363998 17.82876157 -1.359375 14.21484375 C-0.59717685 9.51738338 -0.36598108 4.74218044 0 0 Z " fill="#E6635C" transform="translate(487,245)"/>
<path d="M0 0 C8.07177177 0.54723876 11.40798865 3.20087712 17 9 C11.38014179 7.37319894 6.04233913 4.96273034 1 2 C0.67 1.34 0.34 0.68 0 0 Z " fill="#F6736C" transform="translate(245,170)"/>
<path d="M0 0 C0.66 0.33 1.32 0.66 2 1 C-0.12811469 4.19217204 -2.02866827 5.23628013 -5.33984375 7.03125 C-7.07884035 7.95166443 -7.07884035 7.95166443 -8.5 9.5 C-10.94804964 11.94804964 -13.97312894 13.34378753 -17 15 C-15.48193913 11.0083929 -13.07745175 9.33940678 -9.625 6.9375 C-8.66851562 6.26589844 -7.71203125 5.59429687 -6.7265625 4.90234375 C-5.37691406 3.96068359 -5.37691406 3.96068359 -4 3 C-2.66188081 2.00641316 -1.32651287 1.00902993 0 0 Z " fill="#F16F6A" transform="translate(96,89)"/>
<path d="M0 0 C0.78375 0.268125 1.5675 0.53625 2.375 0.8125 C6.89239169 2.29233521 11.44270338 3.64902274 16 5 C16 6.32 16 7.64 16 9 C15.01 9 14.02 9 13 9 C12.53851563 8.5359375 12.07703125 8.071875 11.6015625 7.59375 C9.14427418 5.14844845 6.23992968 4.73512652 2.9609375 3.84375 C2.31382812 3.5653125 1.66671875 3.286875 1 3 C0.67 2.01 0.34 1.02 0 0 Z " fill="#F66C62" transform="translate(366,234)"/>
<path d="M0 0 C0.33 0 0.66 0 1 0 C0.38029501 9.80843419 0.38029501 9.80843419 -3 14 C-3.66 14 -4.32 14 -5 14 C-5.33 14.66 -5.66 15.32 -6 16 C-6 14.68 -6 13.36 -6 12 C-5.34 12 -4.68 12 -4 12 C-3.79503906 11.21753906 -3.59007812 10.43507812 -3.37890625 9.62890625 C-3.10949219 8.61699219 -2.84007812 7.60507813 -2.5625 6.5625 C-2.29566406 5.55316406 -2.02882812 4.54382813 -1.75390625 3.50390625 C-1 1 -1 1 0 0 Z " fill="#FD3E30" transform="translate(219,196)"/>
<path d="M0 0 C4.44006916 3.61783413 6.98488028 8.71836201 9 14 C8.67 14.66 8.34 15.32 8 16 C3.04573476 11.72908169 0.96733705 6.3844245 0 0 Z " fill="#ED6259" transform="translate(451,65)"/>
<path d="M0 0 C1.16585932 3.49757797 0.75860292 4.61568066 -0.3125 8.0625 C-0.57675781 8.94035156 -0.84101563 9.81820313 -1.11328125 10.72265625 C-2 13 -2 13 -4 15 C-3.67 10.71 -3.34 6.42 -3 2 C-2.01 2 -1.02 2 0 2 C0 1.34 0 0.68 0 0 Z " fill="#E15148" transform="translate(462,358)"/>
<path d="M0 0 C-12.61955098 6.59803935 -12.61955098 6.59803935 -18 5 C-15.75564555 3.96483652 -13.50593133 2.94685023 -11.25 1.9375 C-10.29867187 1.49567383 -10.29867187 1.49567383 -9.328125 1.04492188 C-3.48702331 -1.54098252 -3.48702331 -1.54098252 0 0 Z " fill="#EE6E63" transform="translate(236,20)"/>
<path d="M0 0 C1.23556641 0.01740234 1.23556641 0.01740234 2.49609375 0.03515625 C3.32238281 0.04417969 4.14867187 0.05320312 5 0.0625 C5.63808594 0.07410156 6.27617187 0.08570313 6.93359375 0.09765625 C2.69230946 4.33894054 -3.36760633 4.50812522 -9.06640625 5.09765625 C-9.39640625 4.43765625 -9.72640625 3.77765625 -10.06640625 3.09765625 C-8.93203125 2.78828125 -7.79765625 2.47890625 -6.62890625 2.16015625 C-3.9174895 1.3514881 -2.58036823 0.12194557 0 0 Z " fill="#DB4C3E" transform="translate(350.06640625,486.90234375)"/>
<path d="M0 0 C0 0.66 0 1.32 0 2 C-6.11980533 3.40454548 -11.71739294 4.23268915 -18 4 C-14.91545869 1.94363913 -13.15190326 1.48865646 -9.5625 0.875 C-8.61503906 0.70742187 -7.66757812 0.53984375 -6.69140625 0.3671875 C-4 0 -4 0 0 0 Z " fill="#ED655A" transform="translate(287,5)"/>
<path d="M0 0 C0.95465783 2.16967689 1.14401212 3.56328793 0.3984375 5.82421875 C-0.35870385 7.5684743 -1.17609198 9.28627131 -2 11 C-2.66 11 -3.32 11 -4 11 C-4 12.32 -4 13.64 -4 15 C-4.66 15 -5.32 15 -6 15 C-3.10933941 4.44191344 -3.10933941 4.44191344 0 0 Z " fill="#ED6861" transform="translate(16,174)"/>
<path d="M0 0 C5.34844008 0.53484401 9.35796103 2.46690767 14 5 C14 5.33 14 5.66 14 6 C11.69 5.67 9.38 5.34 7 5 C7 4.34 7 3.68 7 3 C5.35 3.33 3.7 3.66 2 4 C1.34 2.68 0.68 1.36 0 0 Z " fill="#FED5CE" transform="translate(222,160)"/>
<path d="M0 0 C-2.51830747 3.12270126 -3.7261549 3.94523098 -7.75 4.75 C-9.35875 4.87375 -9.35875 4.87375 -11 5 C-10 2 -10 2 -8.22265625 1.015625 C-7.15337891 0.63664062 -7.15337891 0.63664062 -6.0625 0.25 C-5.35222656 -0.01296875 -4.64195312 -0.2759375 -3.91015625 -0.546875 C-2 -1 -2 -1 0 0 Z " fill="#E3342A" transform="translate(385,474)"/>
<path d="M0 0 C0.66 0.33 1.32 0.66 2 1 C1.375 2.9375 1.375 2.9375 0 5 C-3.125 5.75 -3.125 5.75 -6 6 C-6.33 6.99 -6.66 7.98 -7 9 C-8.32 8.67 -9.64 8.34 -11 8 C-10.01 7.67 -9.02 7.34 -8 7 C-8 6.34 -8 5.68 -8 5 C-6.20963542 3.99088542 -4.41927083 2.98177083 -2.62890625 1.97265625 C-1.02121854 1.1027487 -1.02121854 1.1027487 0 0 Z " fill="#F37971" transform="translate(348,260)"/>
<path d="M0 0 C-0.47986031 5.56890517 -1.29915181 10.67067568 -3 16 C-4.0635083 12.63355643 -4.00078718 9.81477017 -3.6875 6.3125 C-3.60886719 5.33925781 -3.53023438 4.36601562 -3.44921875 3.36328125 C-3.30097656 2.58339844 -3.15273438 1.80351562 -3 1 C-1 0 -1 0 0 0 Z " fill="#E4665D" transform="translate(476,314)"/>
<path d="M0 0 C0 6.875 0 6.875 -2.5 9.6875 C-2.995 10.120625 -3.49 10.55375 -4 11 C-4.33 11.66 -4.66 12.32 -5 13 C-5.66 13 -6.32 13 -7 13 C-5.58832253 7.73829306 -3.25149768 4.27828642 0 0 Z " fill="#EC7268" transform="translate(24,161)"/>
<path d="M0 0 C2.97 0 5.94 0 9 0 C9.33 0.99 9.66 1.98 10 3 C10.66 3.66 11.32 4.32 12 5 C8.13209997 5 6.98680587 4.72629646 3.75 3 C3.04359375 2.62875 2.3371875 2.2575 1.609375 1.875 C1.07828125 1.58625 0.5471875 1.2975 0 1 C0 0.67 0 0.34 0 0 Z " fill="#EC3727" transform="translate(264,180)"/>
<path d="M0 0 C0.33 0.66 0.66 1.32 1 2 C-1.51830747 5.12270126 -2.7261549 5.94523098 -6.75 6.75 C-8.35875 6.87375 -8.35875 6.87375 -10 7 C-6.87378374 3.60582235 -4.43458973 1.3937282 0 0 Z " fill="#F05B53" transform="translate(124,71)"/>
<path d="M0 0 C-1.40751221 0.86916887 -2.8264521 1.71985149 -4.25 2.5625 C-5.03890625 3.03816406 -5.8278125 3.51382812 -6.640625 4.00390625 C-9.30844625 5.13022151 -10.34501768 5.0169313 -13 4 C-9.52380904 -0.24867784 -5.18063323 -1.56649817 0 0 Z " fill="#EE4A3A" transform="translate(269,10)"/>
<path d="M0 0 C1.31571603 0.2547514 2.62760376 0.52934141 3.9375 0.8125 C4.66839844 0.96332031 5.39929688 1.11414063 6.15234375 1.26953125 C6.76207031 1.51058594 7.37179688 1.75164062 8 2 C8.33 2.99 8.66 3.98 9 5 C9.66 5.33 10.32 5.66 11 6 C11 6.66 11 7.32 11 8 C6.40378078 6.5129879 3.53027653 4.20187872 0 1 C0 0.67 0 0.34 0 0 Z " fill="#DB3C31" transform="translate(232,458)"/>
<path d="M0 0 C-5.75 4 -5.75 4 -8 4 C-8 4.66 -8 5.32 -8 6 C-9.65 6.33 -11.3 6.66 -13 7 C-12.525625 6.566875 -12.05125 6.13375 -11.5625 5.6875 C-9.76313043 3.97690387 -9.76313043 3.97690387 -9 1 C-3.79245283 -1.26415094 -3.79245283 -1.26415094 0 0 Z " fill="#FCB1A7" transform="translate(277,304)"/>
<path d="M0 0 C5.26371362 -0.50130606 7.9090934 0.68831371 12 4 C12 4.66 12 5.32 12 6 C7.76570244 4.68938409 3.92592596 3.05643741 0 1 C0 0.67 0 0.34 0 0 Z " fill="#EE3B2B" transform="translate(224,159)"/>
<path d="M0 0 C2.55803184 3.83704776 4.34505724 7.75712791 3.625 12.4375 C3.41875 12.953125 3.2125 13.46875 3 14 C-0.2102122 10.7897878 0.01025241 7.62539686 -0.0625 3.1875 C-0.041875 2.135625 -0.02125 1.08375 0 0 Z " fill="#E86762" transform="translate(478,131)"/>
<path d="M0 0 C0.66 0.33 1.32 0.66 2 1 C1.360625 1.598125 0.72125 2.19625 0.0625 2.8125 C-2.20310389 4.90810337 -2.20310389 4.90810337 -3 8 C-6.0625 9.1875 -6.0625 9.1875 -9 10 C-7.61811547 6.78956118 -6.07578097 4.95063635 -3.375 2.75 C-2.74335937 2.22921875 -2.11171875 1.7084375 -1.4609375 1.171875 C-0.73777344 0.59179688 -0.73777344 0.59179688 0 0 Z " fill="#F17A74" transform="translate(75,105)"/>
<path d="M0 0 C-5.16923077 4.92307692 -5.16923077 4.92307692 -9.375 5.3125 C-10.674375 5.1578125 -10.674375 5.1578125 -12 5 C-3.89473684 -1.94736842 -3.89473684 -1.94736842 0 0 Z " fill="#F07366" transform="translate(173,46)"/>
<path d="M0 0 C0.66 0.33 1.32 0.66 2 1 C-0.60313168 4.90469752 -2.49467394 5.06786357 -7 6 C-9.2265625 5.546875 -9.2265625 5.546875 -11 5 C-9.21289414 4.13633178 -7.4201535 3.28431406 -5.625 2.4375 C-4.62726563 1.96183594 -3.62953125 1.48617187 -2.6015625 0.99609375 C-1.74304688 0.66738281 -0.88453125 0.33867188 0 0 Z " fill="#EC271A" transform="translate(196,35)"/>
<path d="M0 0 C4.43458973 1.3937282 6.87378374 3.60582235 10 7 C6.4257023 6.67506385 4.44287547 6.36129314 1.625 4.0625 C0 2 0 2 0 0 Z " fill="#EE5851" transform="translate(405,13)"/>
<path d="M0 0 C0.66 0 1.32 0 2 0 C3.36363208 1.97946592 4.69418644 3.9819245 6 6 C7.62351109 7.79394446 7.62351109 7.79394446 9 9 C8.67 9.99 8.34 10.98 8 12 C6.84906075 10.5665848 5.70441965 9.12811091 4.5625 7.6875 C3.92441406 6.88699219 3.28632813 6.08648437 2.62890625 5.26171875 C1 3 1 3 0 0 Z " fill="#DD4F43" transform="translate(23,269)"/>
<path d="M0 0 C0.66 0.33 1.32 0.66 2 1 C-0.88406243 4.40843742 -2.3708265 5.86591384 -6.8125 6.8125 C-8.3903125 6.9053125 -8.3903125 6.9053125 -10 7 C-8.72070154 4.44140308 -7.55728932 4.13851266 -5 2.9375 C-2.30092276 1.75531476 -2.30092276 1.75531476 0 0 Z " fill="#EF4A3F" transform="translate(376,244)"/>
<path d="M0 0 C4.29 0 8.58 0 13 0 C13 0.33 13 0.66 13 1 C11.58622218 1.36552803 10.16879424 1.71695495 8.75 2.0625 C7.96109375 2.25972656 7.1721875 2.45695313 6.359375 2.66015625 C3.89605178 3.01497267 2.34395868 2.76877544 0 2 C0 1.34 0 0.68 0 0 Z " fill="#F5170B" transform="translate(296,195)"/>
<path d="M0 0 C0.33 0 0.66 0 1 0 C1.17835515 4.54805635 0.99785435 7.8794254 -1 12 C-1.66 12 -2.32 12 -3 12 C-2.69106068 10.3743193 -2.3777305 8.74947252 -2.0625 7.125 C-1.88847656 6.22007812 -1.71445313 5.31515625 -1.53515625 4.3828125 C-1 2 -1 2 0 0 Z " fill="#EB736B" transform="translate(9,189)"/>
<path d="M0 0 C-4.455 2.97 -4.455 2.97 -9 6 C-9.66 5.67 -10.32 5.34 -11 5 C-8.19620232 0.57295103 -5.22955941 -1.74318647 0 0 Z " fill="#DB584D" transform="translate(395,469)"/>
<path d="M0 0 C2.5 2.3125 2.5 2.3125 5 5 C5 5.99 5 6.98 5 8 C5.66 8 6.32 8 7 8 C6.67 8.66 6.34 9.32 6 10 C4.125 9.5 4.125 9.5 2 8 C1.01505446 5.34822355 0.54087618 2.79452693 0 0 Z " fill="#EE7269" transform="translate(438,44)"/>
<path d="M0 0 C5.63470383 -0.5497272 8.38987758 1.04952165 13 4 C9.29218328 5.23593891 8.32489747 4.5678132 4.8125 3.0625 C3.91144531 2.68222656 3.01039063 2.30195313 2.08203125 1.91015625 C1.39496094 1.60980469 0.70789063 1.30945313 0 1 C0 0.67 0 0.34 0 0 Z " fill="#D64C40" transform="translate(271,484)"/>
<path d="M0 0 C5.35048061 0.37328935 7.50912907 1.9957657 11 6 C6.49197399 4.74194623 3.5087188 3.09592835 0 0 Z " fill="#F27A71" transform="translate(275,186)"/>
<path d="M0 0 C0 3.36403475 -0.61880053 4.40092917 -2.375 7.1875 C-2.81585937 7.90292969 -3.25671875 8.61835938 -3.7109375 9.35546875 C-4.13632812 9.89816406 -4.56171875 10.44085938 -5 11 C-5.66 11 -6.32 11 -7 11 C-5.5140084 6.40693504 -3.14985318 3.56430755 0 0 Z " fill="#ED6F67" transform="translate(32,150)"/>
<path d="M0 0 C-0.33 0.99 -0.66 1.98 -1 3 C-5.455 3.495 -5.455 3.495 -10 4 C-4 -2 -4 -2 0 0 Z " fill="#F17C73" transform="translate(161,52)"/>
<path d="M0 0 C1.12377697 3.30435084 0.89554742 5.0506862 -0.4375 8.25 C-0.72496094 8.95640625 -1.01242187 9.6628125 -1.30859375 10.390625 C-1.53675781 10.92171875 -1.76492188 11.4528125 -2 12 C-2.33 12 -2.66 12 -3 12 C-3 9.36 -3 6.72 -3 4 C-2.01 3.67 -1.02 3.34 0 3 C0 2.01 0 1.02 0 0 Z " fill="#E66D68" transform="translate(468,341)"/>
<path d="M0 0 C1.32 0 2.64 0 4 0 C4.33 1.32 4.66 2.64 5 4 C5.66 4 6.32 4 7 4 C6.67 4.99 6.34 5.98 6 7 C1.125 3.375 1.125 3.375 0 0 Z " fill="#DD423A" transform="translate(45,296)"/>
<path d="M0 0 C1.32 0 2.64 0 4 0 C4.33 1.98 4.66 3.96 5 6 C5.66 6 6.32 6 7 6 C6.67 6.66 6.34 7.32 6 8 C1.125 3.375 1.125 3.375 0 0 Z " fill="#E44934" transform="translate(32,281)"/>
<path d="M0 0 C3.45925163 1.2491742 6.14693203 2.67527795 9 5 C6.03 4.67 3.06 4.34 0 4 C0 2.68 0 1.36 0 0 Z " fill="#FDCBC3" transform="translate(347,224)"/>
<path d="M0 0 C2.97246802 2.54782974 4.41535288 5.45340883 6 9 C6 9.66 6 10.32 6 11 C5.34 11 4.68 11 4 11 C1.38411497 7.44239635 0.50642192 4.35522853 0 0 Z " fill="#EC655F" transform="translate(445,54)"/>
<path d="M0 0 C2.97 0.495 2.97 0.495 6 1 C6 2.65 6 4.3 6 6 C1.125 3.375 1.125 3.375 0 0 Z " fill="#E15247" transform="translate(39,290)"/>
<path d="M0 0 C5.4611399 0.35233161 5.4611399 0.35233161 8 1 C9.5 3.0625 9.5 3.0625 10 5 C2.42857143 3.14285714 2.42857143 3.14285714 0 0 Z " fill="#ED4436" transform="translate(296,197)"/>
<path d="M0 0 C4.875 4.75 4.875 4.75 6 7 C3.03 6.505 3.03 6.505 0 6 C0 4.02 0 2.04 0 0 Z " fill="#EE5E54" transform="translate(425,28)"/>
<path d="M0 0 C3.34373475 0.55728913 6.03312999 1.35173889 9 3 C9 3.66 9 4.32 9 5 C5.22454612 3.90931332 2.52956528 3.0916909 0 0 Z " fill="#DB453E" transform="translate(255,475)"/>
<path d="M0 0 C-0.309375 0.5775 -0.61875 1.155 -0.9375 1.75 C-1.92583364 3.84294184 -2.5168613 5.74535275 -3 8 C-3.66 8 -4.32 8 -5 8 C-4.74438677 5.6568787 -4.40729228 3.32156597 -4 1 C-2 0 -2 0 0 0 Z " fill="#EC1F1A" transform="translate(430,428)"/>
<path d="M0 0 C1.46726798 3.81489674 0.43336419 6.29011622 -1 10 C-1.33 10 -1.66 10 -2 10 C-2.25 3.375 -2.25 3.375 0 0 Z " fill="#EF1F0D" transform="translate(458,364)"/>
<path d="M0 0 C2.66666667 1.33333333 5.33333333 2.66666667 8 4 C7.67 4.99 7.34 5.98 7 7 C5.82780457 6.21654285 4.66236332 5.42297164 3.5 4.625 C2.8503125 4.18414062 2.200625 3.74328125 1.53125 3.2890625 C1.0259375 2.86367188 0.520625 2.43828125 0 2 C0 1.34 0 0.68 0 0 Z " fill="#DD5340" transform="translate(112,354)"/>
<path d="M0 0 C0.66 0.33 1.32 0.66 2 1 C-0.25 3.5625 -0.25 3.5625 -3 6 C-4.32 5.67 -5.64 5.34 -7 5 C-4.69 3.35 -2.38 1.7 0 0 Z " fill="#EF5146" transform="translate(284,298)"/>
<path d="M0 0 C2.475 0.495 2.475 0.495 5 1 C5 1.66 5 2.32 5 3 C6.65 3 8.3 3 10 3 C10 3.66 10 4.32 10 5 C2.42857143 3.14285714 2.42857143 3.14285714 0 0 Z " fill="#EF5146" transform="translate(306,202)"/>
<path d="M0 0 C3.93673644 1.31224548 6.22719294 2.91910327 9 6 C6.69 5.34 4.38 4.68 2 4 C2 3.34 2 2.68 2 2 C1.34 2 0.68 2 0 2 C0 1.34 0 0.68 0 0 Z " fill="#FDCEC7" transform="translate(301,200)"/>
<path d="M0 0 C0.33 1.32 0.66 2.64 1 4 C-0.65 5.32 -2.3 6.64 -4 8 C-2.25 2.25 -2.25 2.25 0 0 Z " fill="#F22417" transform="translate(43,138)"/>
<path d="M0 0 C2.9375 0.75 2.9375 0.75 6 2 C6.875 4.125 6.875 4.125 7 6 C1.125 2.25 1.125 2.25 0 0 Z " fill="#DF423C" transform="translate(225,452)"/>
<path d="M0 0 C2.64 0.33 5.28 0.66 8 1 C8 1.99 8 2.98 8 4 C4.31245243 3.50168276 2.39509338 2.89932357 0 0 Z " fill="#F87C72" transform="translate(245,170)"/>
</svg>
